# xmcd
#
# Track frame offsets: 
#        150
#        13215
#        27069
#        43409
#        62284
#        82352
#        101168
#        115614
#        138774
#        154951
#        175543
#        195610
#
# Disc length: 3074 seconds
#
# Revision: 2
# Processed by: cddbd v1.5.2PL0 Copyright (c) Steve Scherf et al.
# Submitted via: ExactAudioCopy v0.95b4
#
DISCID=9a0c000c
DTITLE=Folds, Ben - supersunnyspeedgraphic, the lp
DYEAR=2006
DGENRE=Rock
TTITLE0=In Between Days
TTITLE1=All U Can Eat
TTITLE2=Songs of Love
TTITLE3=There's Always Someone Cooler Than You
TTITLE4=Learn to Live with What You Are
TTITLE5=Bitches Ain't Shit
TTITLE6=Adelaide
TTITLE7=Rent a Cop
TTITLE8=Get Your Hands off My Woman [feat. Corn Mo]
TTITLE9=Bruised
TTITLE10=Dog
TTITLE11=Still
EXTD=
EXTT0=
EXTT1=
EXTT2=
EXTT3=
EXTT4=
EXTT5=
EXTT6=
EXTT7=
EXTT8=
EXTT9=
EXTT10=
EXTT11=
PLAYORDER=
